<svg width="32" height="32" viewBox="0 0 32 32" fill="none" xmlns="http://www.w3.org/2000/svg">
<path d="M20.6668 11.3333L25.6373 15.1993C26.2869 15.7045 26.6668 16.4909 26.6668 17.3138C26.6668 18.7865 25.4729 20 24.0002 20H18.6668M11.3335 11.3333L6.36299 15.1993C5.71342 15.7045 5.3335 16.4909 5.3335 17.3138C5.3335 18.7865 6.5274 20 8.00016 20H13.3335M10.6668 25.3333H14.6668M17.3335 25.3333H21.3335M11.8567 10.9852L15.3478 27.5679C15.4964 28.2737 16.5039 28.2737 16.6525 27.5679L20.1436 10.9852C20.8446 7.65549 19.211 4.27205 16.1675 2.75032C16.0622 2.69765 15.9382 2.69765 15.8328 2.75032C12.7894 4.27205 11.1557 7.65549 11.8567 10.9852Z" stroke="#0044EB" stroke-width="2" stroke-linecap="round"/>
</svg>
