<svg width="32" height="32" viewBox="0 0 32 32" fill="none" xmlns="http://www.w3.org/2000/svg">
<path d="M9.5611 17.208L6.69043 25.756L10.2531 24.5693L12.3438 27.6893L14.7771 20.7786M22.4171 17.208L25.2891 25.756L21.7251 24.5693L19.6344 27.6893L17.2011 20.7786M12.2198 5.73332C12.9931 5.82399 13.7571 5.50665 14.2398 4.89599C14.4494 4.62972 14.7167 4.41449 15.0216 4.2665C15.3264 4.11852 15.6609 4.04163 15.9998 4.04163C16.3386 4.04163 16.6731 4.11852 16.978 4.2665C17.2828 4.41449 17.5501 4.62972 17.7598 4.89599C17.9969 5.19653 18.307 5.4313 18.6606 5.57788C19.0143 5.72447 19.3996 5.77798 19.7798 5.73332C20.1161 5.69347 20.4571 5.73041 20.7771 5.84135C21.0971 5.95229 21.3878 6.13435 21.6272 6.37384C21.8667 6.61333 22.0488 6.904 22.1597 7.224C22.2707 7.544 22.3076 7.88499 22.2678 8.22132C22.1771 8.99465 22.4944 9.75999 23.1051 10.2427C23.3711 10.4523 23.5861 10.7195 23.734 11.0243C23.8818 11.329 23.9586 11.6633 23.9586 12.002C23.9586 12.3407 23.8818 12.675 23.734 12.9797C23.5861 13.2844 23.3711 13.5517 23.1051 13.7613C22.8046 13.9984 22.5698 14.3086 22.4232 14.6622C22.2766 15.0158 22.2231 15.4011 22.2678 15.7813C22.3076 16.1176 22.2707 16.4586 22.1597 16.7786C22.0488 17.0986 21.8667 17.3893 21.6272 17.6288C21.3878 17.8683 21.0971 18.0503 20.7771 18.1613C20.4571 18.2722 20.1161 18.3092 19.7798 18.2693C19.3994 18.2244 19.0138 18.2778 18.6599 18.4244C18.306 18.571 17.9956 18.8059 17.7584 19.1067C17.5488 19.3727 17.2815 19.5877 16.9768 19.7355C16.6721 19.8834 16.3378 19.9602 15.9991 19.9602C15.6604 19.9602 15.3261 19.8834 15.0214 19.7355C14.7166 19.5877 14.4494 19.3727 14.2398 19.1067C14.0027 18.8061 13.6925 18.5713 13.3389 18.4248C12.9852 18.2782 12.6 18.2247 12.2198 18.2693C11.8833 18.3094 11.5422 18.2726 11.222 18.1618C10.9018 18.0509 10.611 17.8689 10.3714 17.6294C10.1317 17.3899 9.94953 17.0991 9.83851 16.779C9.72749 16.4589 9.69054 16.1178 9.73043 15.7813C9.77525 15.4012 9.72194 15.016 9.57559 14.6624C9.42924 14.3088 9.19473 13.9986 8.89443 13.7613C8.62817 13.5517 8.41294 13.2844 8.26495 12.9795C8.11696 12.6747 8.04007 12.3402 8.04007 12.0013C8.04007 11.6624 8.11696 11.328 8.26495 11.0231C8.41294 10.7183 8.62817 10.4509 8.89443 10.2413C9.5051 9.75999 9.82243 8.99465 9.73043 8.22132C9.69054 7.88486 9.72749 7.54374 9.83851 7.22363C9.94953 6.90352 10.1317 6.61277 10.3714 6.37326C10.611 6.13374 10.9018 5.95171 11.222 5.84087C11.5422 5.73002 11.8833 5.69325 12.2198 5.73332ZM18.6664 12C18.6664 12.7072 18.3855 13.3855 17.8854 13.8856C17.3853 14.3857 16.707 14.6667 15.9998 14.6667C15.2925 14.6667 14.6142 14.3857 14.1141 13.8856C13.614 13.3855 13.3331 12.7072 13.3331 12C13.3331 11.2927 13.614 10.6145 14.1141 10.1144C14.6142 9.61427 15.2925 9.33332 15.9998 9.33332C16.707 9.33332 17.3853 9.61427 17.8854 10.1144C18.3855 10.6145 18.6664 11.2927 18.6664 12Z" stroke="#F26F4D" stroke-width="2" stroke-linecap="round" stroke-linejoin="round"/>
</svg>
