<svg width="32" height="32" viewBox="0 0 32 32" fill="none" xmlns="http://www.w3.org/2000/svg">
<path d="M22.6667 5.33329C22.313 5.33329 21.9739 5.19282 21.7239 4.94277C21.4738 4.69272 21.3333 4.35358 21.3333 3.99996C21.3333 3.64634 21.4738 3.3072 21.7239 3.05715C21.9739 2.8071 22.313 2.66663 22.6667 2.66663H28C28.3536 2.66663 28.6928 2.8071 28.9428 3.05715C29.1929 3.3072 29.3333 3.64634 29.3333 3.99996V9.33329C29.3333 9.68691 29.1929 10.0261 28.9428 10.2761C28.6928 10.5261 28.3536 10.6666 28 10.6666C27.6464 10.6666 27.3072 10.5261 27.0572 10.2761C26.8071 10.0261 26.6667 9.68691 26.6667 9.33329V7.21863L18.9427 14.9426C18.6926 15.1926 18.3536 15.333 18 15.333C17.6464 15.333 17.3074 15.1926 17.0573 14.9426L13.3333 11.2186L6.276 18.276C6.02453 18.5188 5.68773 18.6532 5.33813 18.6502C4.98854 18.6472 4.65412 18.5069 4.40691 18.2597C4.1597 18.0125 4.01947 17.6781 4.01643 17.3285C4.0134 16.9789 4.14779 16.6421 4.39067 16.3906L12.3907 8.39063C12.6407 8.14066 12.9798 8.00024 13.3333 8.00024C13.6869 8.00024 14.026 8.14066 14.276 8.39063L18 12.1146L24.7813 5.33329H22.6667ZM6.66667 24V28C6.66667 28.3536 6.52619 28.6927 6.27614 28.9428C6.02609 29.1928 5.68696 29.3333 5.33333 29.3333C4.97971 29.3333 4.64057 29.1928 4.39052 28.9428C4.14048 28.6927 4 28.3536 4 28V24C4 23.6463 4.14048 23.3072 4.39052 23.0571C4.64057 22.8071 4.97971 22.6666 5.33333 22.6666C5.68696 22.6666 6.02609 22.8071 6.27614 23.0571C6.52619 23.3072 6.66667 23.6463 6.66667 24ZM13.3333 18.6666C13.3333 18.313 13.1929 17.9739 12.9428 17.7238C12.6928 17.4738 12.3536 17.3333 12 17.3333C11.6464 17.3333 11.3072 17.4738 11.0572 17.7238C10.8071 17.9739 10.6667 18.313 10.6667 18.6666V28C10.6667 28.3536 10.8071 28.6927 11.0572 28.9428C11.3072 29.1928 11.6464 29.3333 12 29.3333C12.3536 29.3333 12.6928 29.1928 12.9428 28.9428C13.1929 28.6927 13.3333 28.3536 13.3333 28V18.6666ZM18.6667 20C19.0203 20 19.3594 20.1404 19.6095 20.3905C19.8595 20.6405 20 20.9797 20 21.3333V28C20 28.3536 19.8595 28.6927 19.6095 28.9428C19.3594 29.1928 19.0203 29.3333 18.6667 29.3333C18.313 29.3333 17.9739 29.1928 17.7239 28.9428C17.4738 28.6927 17.3333 28.3536 17.3333 28V21.3333C17.3333 20.9797 17.4738 20.6405 17.7239 20.3905C17.9739 20.1404 18.313 20 18.6667 20ZM26.6667 14.6666C26.6667 14.313 26.5262 13.9739 26.2761 13.7238C26.0261 13.4738 25.687 13.3333 25.3333 13.3333C24.9797 13.3333 24.6406 13.4738 24.3905 13.7238C24.1405 13.9739 24 14.313 24 14.6666V28C24 28.3536 24.1405 28.6927 24.3905 28.9428C24.6406 29.1928 24.9797 29.3333 25.3333 29.3333C25.687 29.3333 26.0261 29.1928 26.2761 28.9428C26.5262 28.6927 26.6667 28.3536 26.6667 28V14.6666Z" fill="#F44380"/>
</svg>
