<svg width="32" height="32" viewBox="0 0 32 32" fill="none" xmlns="http://www.w3.org/2000/svg">
<path d="M7.28384 5.91064C9.70319 3.81408 12.7985 2.66205 15.9998 2.66664C23.3638 2.66664 29.3332 8.63597 29.3332 16C29.3332 18.848 28.4398 21.488 26.9198 23.6533L22.6665 16H26.6665C26.6667 13.9088 26.0522 11.8637 24.8994 10.119C23.7466 8.37425 22.1064 7.00685 20.1827 6.1868C18.2591 5.36676 16.1368 5.13024 14.0798 5.50666C12.0228 5.88308 10.1218 6.85584 8.61317 8.30397L7.28384 5.91064ZM24.7158 26.0893C22.2965 28.1859 19.2012 29.3379 15.9998 29.3333C8.63584 29.3333 2.6665 23.364 2.6665 16C2.6665 13.152 3.55984 10.512 5.07984 8.34664L9.33317 16H5.33317C5.333 18.0911 5.94751 20.1362 7.10029 21.881C8.25306 23.6257 9.89326 24.9931 11.8169 25.8131C13.7406 26.6332 15.8629 26.8697 17.9199 26.4933C19.9769 26.1169 21.8779 25.1441 23.3865 23.696L24.7158 26.0893Z" fill="#23BABF"/>
</svg>
