<svg width="32" height="32" viewBox="0 0 32 32" fill="none" xmlns="http://www.w3.org/2000/svg">
<path d="M16.0002 4.00005L16.5255 2.77338C16.3595 2.70222 16.1808 2.66553 16.0002 2.66553C15.8196 2.66553 15.6408 2.70222 15.4748 2.77338L16.0002 4.00005ZM16.0002 28L15.3388 29.1574C15.5402 29.2724 15.7682 29.3329 16.0002 29.3329C16.2321 29.3329 16.4601 29.2724 16.6615 29.1574L16.0002 28ZM15.4748 2.77471L6.9495 6.42671L8.00016 8.88005L16.5255 5.22671L15.4748 2.77471ZM5.3335 8.87871V18.0254H8.00016V8.87871H5.3335ZM10.0362 26.128L15.3388 29.1574L16.6615 26.8427L11.3588 23.812L10.0362 26.128ZM16.6615 29.1574L21.9642 26.128L20.6415 23.812L15.3388 26.8427L16.6615 29.1574ZM26.6668 18.024V8.88005H24.0002V18.0267L26.6668 18.024ZM25.0508 6.42805L16.5255 2.77471L15.4748 5.22538L24.0002 8.88005L25.0508 6.42805ZM26.6668 8.88005C26.6668 8.35826 26.5136 7.84795 26.2264 7.41234C25.9391 6.97673 25.5304 6.63363 25.0508 6.42805L24.0002 8.88005H26.6668ZM21.9642 26.128C23.393 25.3116 24.5806 24.1331 25.4064 22.7097C26.2323 21.2862 26.6671 19.6697 26.6668 18.024H24.0002C24 19.1994 23.6892 20.3538 23.0991 21.3702C22.509 22.3867 21.6607 23.2291 20.6402 23.812L21.9642 26.128ZM5.3335 18.024C5.33342 19.6695 5.76836 21.2857 6.59422 22.7089C7.42008 24.1321 8.60751 25.3117 10.0362 26.128L11.3588 23.812C10.3389 23.2291 9.49113 22.3871 8.90133 21.3711C8.31152 20.3552 8.00064 19.2015 8.00016 18.0267L5.3335 18.024ZM6.9495 6.42671C6.4697 6.63239 6.06083 6.97569 5.77357 7.41156C5.48631 7.84743 5.33329 8.35803 5.3335 8.88005H8.00016L6.9495 6.42671Z" fill="#47B16A"/>
<path d="M20 13.3334L14.6667 18.6667L12 16" stroke="#47B16A" stroke-width="2" stroke-linecap="round" stroke-linejoin="round"/>
</svg>
