<svg width="32" height="32" viewBox="0 0 32 32" fill="none" xmlns="http://www.w3.org/2000/svg">
<path d="M8 28V25.3333C8 23.9188 8.5619 22.5623 9.5621 21.5621C10.5623 20.5619 11.9188 20 13.3333 20H14M10.6667 9.33333C10.6667 10.7478 11.2286 12.1044 12.2288 13.1046C13.229 14.1048 14.5855 14.6667 16 14.6667C17.4145 14.6667 18.771 14.1048 19.7712 13.1046C20.7714 12.1044 21.3333 10.7478 21.3333 9.33333C21.3333 7.91885 20.7714 6.56229 19.7712 5.5621C18.771 4.5619 17.4145 4 16 4C14.5855 4 13.229 4.5619 12.2288 5.5621C11.2286 6.56229 10.6667 7.91885 10.6667 9.33333ZM24 29.3333L28.4667 24.9547C28.7406 24.6889 28.9585 24.3709 29.1075 24.0195C29.2564 23.6681 29.3335 23.2904 29.3342 22.9087C29.3348 22.5271 29.2589 22.1491 29.1111 21.7973C28.9632 21.4454 28.7464 21.1267 28.4733 20.86C27.9165 20.3145 27.1685 20.0083 26.389 20.0068C25.6095 20.0053 24.8602 20.3086 24.3013 20.852L24.0027 21.1453L23.7053 20.852C23.1486 20.3069 22.4008 20.0009 21.6216 19.9995C20.8424 19.998 20.0935 20.301 19.5347 20.844C19.2607 21.1097 19.0427 21.4276 18.8936 21.779C18.7445 22.1303 18.6673 22.508 18.6665 22.8896C18.6658 23.2713 18.7415 23.6493 18.8892 24.0012C19.037 24.3531 19.2537 24.6719 19.5267 24.9387L24 29.3333Z" stroke="#F3A338" stroke-width="2" stroke-linecap="round" stroke-linejoin="round"/>
</svg>
