<?xml version="1.0" encoding="UTF-8"?>
<svg version="1.1" xmlns="http://www.w3.org/2000/svg" width="600" height="165">
<path d="M0 0 C0 0.66 0 1.32 0 2 C0.99 2.33 1.98 2.66 3 3 C4.38753466 5.12715868 5.61629603 7.20661471 6.8125 9.4375 C7.46342338 10.62447793 8.11580676 11.81065621 8.76953125 12.99609375 C9.12039795 13.63369629 9.47126465 14.27129883 9.83276367 14.92822266 C11.60496436 18.07377694 13.47624524 21.15759928 15.34204102 24.24829102 C18.44486327 29.39803474 21.4990513 34.57677204 24.5625 39.75 C25.26699343 40.93913651 25.97150214 42.12826397 26.67602539 43.31738281 C30.55834586 49.87115257 34.43509711 56.42818203 38.30712891 62.98803711 C42.58303776 70.23172637 46.86408752 77.47203306 51.1875 84.6875 C51.55029053 85.29368164 51.91308105 85.89986328 52.28686523 86.52441406 C53.80787746 89.05635871 55.3610427 91.54156406 57 94 C57.00142502 92.97349335 57.00285004 91.94698669 57.00431824 90.88937378 C57.02099951 81.20780331 57.06380763 71.52665255 57.13209057 61.84530449 C57.16635771 56.86816272 57.19147013 51.89132781 57.19555664 46.9140625 C57.19984016 42.10919559 57.2283074 37.30502087 57.27343178 32.50037003 C57.28640505 30.66883503 57.29071506 28.8372172 57.28615379 27.00564194 C57.28124645 24.43643533 57.30734389 21.86925076 57.34057617 19.30029297 C57.33195053 18.54575333 57.32332489 17.79121368 57.31443787 17.0138092 C57.39703837 13.1958214 57.95168422 10.5426172 60.23034668 7.52380371 C63.18440686 4.8319621 64.08419984 4.25726965 67.97387695 4.31884766 C68.93449539 4.31930084 69.89511383 4.31975403 70.88484192 4.32022095 C72.42104439 4.36667252 72.42104439 4.36667252 73.98828125 4.4140625 C75.04661667 4.42255219 76.10495209 4.43104187 77.19535828 4.43978882 C80.56878337 4.47332054 83.93979999 4.54860434 87.3125 4.625 C89.60217897 4.65509967 91.89189549 4.68247546 94.18164062 4.70703125 C99.78857929 4.77311078 105.39411758 4.87345767 111 5 C111.33 5.99 111.66 6.98 112 8 C113.79649965 9.0953531 113.79649965 9.0953531 116 9 C116.53834976 8.35229141 117.07669952 7.70458282 117.63136292 7.0372467 C120.93087757 4.1993593 123.93212479 4.4310381 128.08569336 4.46655273 C128.89754593 4.45793716 129.7093985 4.44932159 130.54585266 4.44044495 C133.22750806 4.41775633 135.90812082 4.42452918 138.58984375 4.43359375 C140.45545259 4.42835917 142.32105876 4.42208329 144.18666077 4.41481018 C148.09649102 4.40440044 152.00595747 4.40897523 155.91577148 4.42358398 C160.92423021 4.44076653 165.93154117 4.41728636 170.93987179 4.38209438 C174.79268484 4.36012381 178.64522317 4.36156112 182.4980793 4.3698597 C184.34445008 4.37067952 186.19084097 4.36381007 188.03715324 4.34908867 C190.62045487 4.33165002 193.20169317 4.34617819 195.78491211 4.36889648 C196.54611359 4.35720428 197.30731506 4.34551208 198.09158325 4.33346558 C202.05929556 4.40439167 203.82156777 4.85766691 206.96218872 7.36289978 C210.79381421 12.32134736 210.11394895 17.79829375 209.87890625 23.8046875 C209.85529526 24.5286673 209.83168427 25.25264709 209.80735779 25.99856567 C209.73132307 28.29094051 209.64704376 30.58292481 209.5625 32.875 C209.50921886 34.43748145 209.45647897 35.99998146 209.40429688 37.5625 C209.2757905 41.37524316 209.13989371 45.18765836 209 49 C209.66 49 210.32 49 211 49 C211.09152344 47.84371094 211.18304688 46.68742187 211.27734375 45.49609375 C211.86322335 40.86509763 213.42878917 37.1807076 215.5625 33.0625 C216.09605103 32.01872192 216.09605103 32.01872192 216.64038086 30.95385742 C221.09354972 22.54819501 226.83842079 15.96095991 235 11 C235.99 11 236.98 11 238 11 C238 10.34 238 9.68 238 9 C239.66592672 8.2860314 241.33216607 7.57278318 243 6.86328125 C244.86491358 6.05830879 246.71445094 5.21796975 248.5625 4.375 C257.90933714 0.63626514 268.48769684 1.03715147 278 4 C278.71671875 4.19464844 279.4334375 4.38929687 280.171875 4.58984375 C285.48693541 6.13854239 289.64286108 8.49811315 294.15234375 11.6953125 C295.96725102 13.04637805 295.96725102 13.04637805 298 14 C298 14.66 298 15.32 298 16 C298.61875 16.2475 299.2375 16.495 299.875 16.75 C302.35068687 18.20628639 302.95125002 19.37812506 304 22 C304.66 22 305.32 22 306 22 C307.43194595 24.03753976 308.72889327 26.05286967 310 28.1875 C310.35578125 28.76564453 310.7115625 29.34378906 311.078125 29.93945312 C313.05813656 33.20868863 314.62893243 36.44076015 316 40 C316.01981934 39.24904053 316.03963867 38.49808105 316.06005859 37.72436523 C316.15579401 34.29508043 316.26527633 30.86636458 316.375 27.4375 C316.4059375 26.25607422 316.436875 25.07464844 316.46875 23.85742188 C316.93107024 10.10339463 316.93107024 10.10339463 321 4 C322.65 4.33 324.3 4.66 326 5 C326 5.66 326 6.32 326 7 C326.57886963 7.10723389 327.15773926 7.21446777 327.75415039 7.32495117 C330.31183793 8.09373104 331.83148806 9.16249998 333.93359375 10.80078125 C334.66513672 11.36603516 335.39667969 11.93128906 336.15039062 12.51367188 C336.90513672 13.10728516 337.65988281 13.70089844 338.4375 14.3125 C339.18837891 14.89451172 339.93925781 15.47652344 340.71289062 16.07617188 C342.16524609 17.20407854 343.61382569 18.33686843 345.05810547 19.47509766 C346.70258567 20.76645086 348.36681795 22.03258962 350.03515625 23.29296875 C350.68355469 23.85628906 351.33195312 24.41960938 352 25 C352 25.66 352 26.32 352 27 C352.99 27 353.98 27 355 27 C355 27.66 355 28.32 355 29 C355.5775 29.268125 356.155 29.53625 356.75 29.8125 C359.03412048 31.01800803 360.95431531 32.43135523 363 34 C363.04898437 32.78183594 363.09796875 31.56367187 363.1484375 30.30859375 C363.22352273 28.68487563 363.29906802 27.06117874 363.375 25.4375 C363.4059375 24.63763672 363.436875 23.83777344 363.46875 23.01367188 C363.75124588 17.24604762 364.14936209 11.7858862 367.43334961 6.84228516 C371.45234447 3.95753911 375.44447428 4.36983016 380.27734375 4.36328125 C381.28084366 4.35233932 382.28434357 4.3413974 383.31825256 4.3301239 C385.43892279 4.31426763 387.55969554 4.30905977 389.68041992 4.3137207 C392.92344289 4.31250527 396.16196504 4.25272895 399.40429688 4.18945312 C401.4661348 4.1813118 403.52798993 4.17663915 405.58984375 4.17578125 C406.55768295 4.15220047 407.52552216 4.12861969 408.52268982 4.10432434 C409.43035599 4.11670639 410.33802216 4.12908844 411.27319336 4.1418457 C412.06721054 4.13836624 412.86122772 4.13488678 413.67930603 4.13130188 C417.52032758 5.56909947 419.29137794 8.35775382 421 12 C421.66017886 15.13953524 421.65536425 18.16075007 421.59936523 21.36010742 C421.60330795 22.27154007 421.60725067 23.18297272 421.61131287 24.12202454 C421.6179941 27.11707564 421.58892683 30.11058225 421.55859375 33.10546875 C421.55434105 35.1933818 421.55201478 37.28129959 421.55152893 39.36921692 C421.54537371 43.73619137 421.52271844 48.10265084 421.48706055 52.46948242 C421.44170499 58.0683961 421.42702948 63.66684498 421.42332363 69.26592541 C421.41889717 73.57331426 421.40359839 77.88060553 421.3844471 82.18795204 C421.37556693 84.25283315 421.36883594 86.31772466 421.36428642 88.38261986 C421.3552506 91.26461716 421.33286751 94.14619296 421.30639648 97.02807617 C421.30573181 97.88166718 421.30506714 98.73525818 421.30438232 99.61471558 C421.28941963 100.7941851 421.28941963 100.7941851 421.27415466 101.9974823 C421.26950416 102.67789172 421.26485365 103.35830114 421.26006222 104.05932903 C420.94700422 106.3954722 420.22604851 107.99432303 419 110 C415.60649961 111.6967502 411.74135437 111.14717374 408.00805664 111.14526367 C407.07624069 111.14862228 406.14442474 111.1519809 405.18437195 111.15544128 C402.09295329 111.16496849 399.00158869 111.16689525 395.91015625 111.16796875 C393.76785764 111.17117997 391.62555925 111.17454394 389.48326111 111.17805481 C384.9882659 111.18405042 380.49328994 111.18589425 375.99829102 111.18530273 C370.22991228 111.18520106 364.46165649 111.19885699 358.69330692 111.21607494 C354.26760793 111.22717653 349.84193884 111.22922251 345.41622734 111.22869301 C343.28910333 111.22987577 341.16197861 111.234314 339.03486824 111.24202538 C336.06360306 111.25178862 333.09260712 111.24896179 330.12133789 111.24291992 C329.23759491 111.24853943 328.35385193 111.25415894 327.44332886 111.25994873 C321.34247526 111.22831684 321.34247526 111.22831684 318 109 C316.93113311 105.39399093 316.81799217 101.78692485 316.68359375 98.04296875 C316.64169922 96.93115234 316.59980469 95.81933594 316.55664062 94.67382812 C316.49766602 92.9480957 316.49766602 92.9480957 316.4375 91.1875 C316.39431641 90.01767578 316.35113281 88.84785156 316.30664062 87.64257812 C316.20081721 84.76182969 316.09873175 81.88099877 316 79 C315.44832153 80.22771118 315.44832153 80.22771118 314.88549805 81.48022461 C309.13586277 94.0606685 300.33910517 104.06613185 287.4296875 109.50390625 C271.24449536 115.43397143 254.8857359 116.16177586 238.875 108.875 C226.42039833 102.09078608 216.35733911 91.67720333 212 78 C210.78846857 73.04159873 209.87426879 68.02704553 209 63 C207.515 63.495 207.515 63.495 206 64 C203.60745424 64.22560676 201.21071877 64.40848595 198.8125 64.5625 C196.90404297 64.68818359 196.90404297 64.68818359 194.95703125 64.81640625 C193.98121094 64.87699219 193.00539063 64.93757813 192 65 C191.98541748 66.28688721 191.97083496 67.57377441 191.95581055 68.8996582 C191.89788852 73.6689855 191.82065537 78.43783762 191.73754883 83.20678711 C191.70427076 85.2718129 191.67624786 87.33693027 191.65356445 89.40209961 C191.62007145 92.36872432 191.56775855 95.33450748 191.51171875 98.30078125 C191.50532883 99.2258699 191.4989389 100.15095856 191.49235535 101.1040802 C191.46266411 102.39507881 191.46266411 102.39507881 191.43237305 103.7121582 C191.42126999 104.46938675 191.41016693 105.2266153 191.39872742 106.00679016 C190.87902395 108.60475063 190.15758547 109.4756578 188 111 C185.76123047 111.38095093 185.76123047 111.38095093 183.1171875 111.38818359 C182.12605957 111.39764008 181.13493164 111.40709656 180.11376953 111.4168396 C179.04497559 111.41076691 177.97618164 111.40469421 176.875 111.3984375 C175.77655762 111.40130768 174.67811523 111.40417786 173.54638672 111.40713501 C171.22297653 111.40917736 168.89954922 111.40363563 166.57617188 111.39111328 C163.01393288 111.37506278 159.45282858 111.39095698 155.890625 111.41015625 C153.63541415 111.40817385 151.38020402 111.40433024 149.125 111.3984375 C148.05620605 111.40451019 146.98741211 111.41058289 145.88623047 111.4168396 C144.39953857 111.40265488 144.39953857 111.40265488 142.8828125 111.38818359 C142.01027832 111.38579681 141.13774414 111.38341003 140.23876953 111.38095093 C138 111 138 111 136.22184753 109.74372864 C134.70713119 107.58203973 134.60614724 106.33924199 134.56762695 103.7121582 C134.54783279 102.85149246 134.52803864 101.99082672 134.50764465 101.1040802 C134.49805977 99.71644722 134.49805977 99.71644722 134.48828125 98.30078125 C134.47033005 97.35059616 134.45237885 96.40041107 134.43388367 95.4214325 C134.37968107 92.38516687 134.34585296 89.34905933 134.3125 86.3125 C134.27933572 84.25453525 134.2448469 82.19659138 134.20898438 80.13867188 C134.1239488 75.09256181 134.05718502 70.04649944 134 65 C132.95199219 64.93941406 131.90398437 64.87882812 130.82421875 64.81640625 C129.44529952 64.73198262 128.06639395 64.64733553 126.6875 64.5625 C125.99720703 64.52318359 125.30691406 64.48386719 124.59570312 64.44335938 C121.52838465 64.25072585 118.93031848 63.97677283 116 63 C116.00999275 63.83565239 116.00999275 63.83565239 116.02018738 64.68818665 C116.08648566 70.4791589 116.1317775 76.27002361 116.16479492 82.0612793 C116.17989444 84.22343321 116.20037571 86.38555643 116.22631836 88.54760742 C116.26265017 91.652909 116.27971462 94.75780614 116.29296875 97.86328125 C116.30845261 98.83211746 116.32393646 99.80095367 116.33988953 100.79914856 C116.34022942 102.15020943 116.34022942 102.15020943 116.34057617 103.52856445 C116.35056892 104.71770195 116.35056892 104.71770195 116.36076355 105.93086243 C115.88265652 108.67301646 115.25290468 109.35856756 113 111 C109.90619659 111.37752342 109.90619659 111.37752342 106.01574707 111.38095093 C105.30067883 111.3856309 104.58561059 111.39031087 103.84887362 111.39513266 C101.44658789 111.40712351 99.04486834 111.39760981 96.64257812 111.38818359 C94.92288377 111.39224749 93.20319203 111.39758834 91.48350525 111.40411377 C86.80794588 111.41781486 82.13258464 111.41247723 77.45702171 111.40297651 C72.56969026 111.39539436 67.68237605 111.4024215 62.79504395 111.40713501 C54.58680162 111.41259678 46.37864021 111.4053899 38.17041016 111.39111328 C28.67332681 111.37478596 19.17643667 111.38007417 9.67935801 111.3965925 C1.53322903 111.41019537 -6.6128417 111.4121329 -14.75897837 111.40427649 C-19.62775751 111.39959337 -24.49644577 111.39899263 -29.36521912 111.40888596 C-33.94200649 111.41753592 -38.51854417 111.4115699 -43.09530449 111.39420319 C-44.77755251 111.39022778 -46.45982146 111.39139033 -48.14206123 111.39799118 C-50.43357598 111.40615544 -52.72428411 111.39594807 -55.01574707 111.38095093 C-56.29959541 111.37981985 -57.58344376 111.37868877 -58.90619659 111.37752342 C-62 111 -62 111 -63.93260956 109.66369057 C-65.37325358 107.41822745 -65.19671359 105.6965285 -64.70214844 103.12988281 C-61.92631965 94.70974013 -56.20463124 86.84229184 -51.6875 79.25 C-51.11918457 78.2911792 -50.55086914 77.3323584 -49.96533203 76.34448242 C-46.43888577 70.40077041 -42.8854175 64.47377731 -39.31542969 58.55615234 C-36.29456205 53.53102868 -33.36377896 48.4556438 -30.4375 43.375 C-26.74194974 36.96035826 -22.96309772 30.62013284 -19.04296875 24.33984375 C-17.46798039 21.76505399 -15.93481645 19.17958645 -14.42578125 16.56640625 C-13.75977905 15.41615967 -13.75977905 15.41615967 -13.08032227 14.24267578 C-12.21476023 12.7428342 -11.35428826 11.2400397 -10.49975586 9.73388672 C-4.87474297 0 -4.87474297 0 0 0 Z " fill="#FFFFFF" transform="translate(168,11)"/>
<path d="M0 0 C6.33531015 -0.10141463 12.67041102 -0.17147114 19.00634766 -0.21972656 C21.16170067 -0.23984276 23.31699911 -0.26713925 25.47216797 -0.30175781 C28.57012395 -0.35027486 31.66735846 -0.37296873 34.765625 -0.390625 C35.72929993 -0.41127014 36.69297485 -0.43191528 37.68585205 -0.45318604 C44.36104874 -0.45542528 44.36104874 -0.45542528 47.57714844 1.83691406 C50.04743956 5.59236693 50.13381569 8.65174194 50.16113281 13.04101562 C50.17074036 14.28661255 50.1803479 15.53220947 50.19024658 16.81555176 C50.19509771 18.17911597 50.19937576 19.54268232 50.203125 20.90625 C50.20888246 22.31050619 50.21464011 23.71476237 50.22039795 25.11901855 C50.23090567 28.06795618 50.23674835 31.0168666 50.24023438 33.96582031 C50.24568786 37.71680802 50.26964841 41.46742697 50.29820633 45.21829987 C50.31698381 48.12338244 50.32204648 51.02837937 50.32357025 53.93351746 C50.32656854 55.31440728 50.33449972 56.69529664 50.34775543 58.0761261 C50.48664738 73.67051547 47.35180256 84.66058548 36.79296875 96.1875 C27.53695442 105.54434237 14.2184438 109.03037643 1.32641602 109.24169922 C-13.52789496 109.29199765 -25.44877994 106.36748004 -38 98 C-38 97.34 -38 96.68 -38 96 C-38.66 96 -39.32 96 -40 96 C-50.85199954 83.85609576 -53.18777931 71.28562207 -53.3125 55.5625 C-53.34150391 54.34755859 -53.37050781 53.13261719 -53.40039062 51.88085938 C-53.40876953 50.70458984 -53.41714844 49.52832031 -53.42578125 48.31640625 C-53.44036377 47.24849854 -53.45494629 46.18059082 -53.4699707 45.08032227 C-52.83962412 40.94885069 -51.94929773 38.99749702 -49 36 C-45.65454931 35.17065551 -42.41286071 35.30132919 -38.984375 35.4140625 C-38.01340881 35.42255219 -37.04244263 35.43104187 -36.04205322 35.43978882 C-32.94356903 35.47335215 -29.84769621 35.54863819 -26.75 35.625 C-24.64847511 35.65509575 -22.54690939 35.68247223 -20.4453125 35.70703125 C-15.29587023 35.77315346 -10.14837767 35.87669692 -5 36 C-5.01571045 34.86570557 -5.01571045 34.86570557 -5.03173828 33.70849609 C-5.07345416 30.26403155 -5.09937583 26.8196203 -5.125 23.375 C-5.14175781 22.18519531 -5.15851562 20.99539062 -5.17578125 19.76953125 C-5.18544922 18.03896484 -5.18544922 18.03896484 -5.1953125 16.2734375 C-5.21102295 14.68668213 -5.21102295 14.68668213 -5.22705078 13.06787109 C-4.98270857 9.76636112 -4.16882977 7.08587237 -3 4 C-2.34 4 -1.68 4 -1 4 C-0.67 2.68 -0.34 1.36 0 0 Z " fill="#FFFFFF" transform="translate(59,16)"/>
<path d="M0 0 C7.59 0 15.18 0 23 0 C23 1.98 23 3.96 23 6 C17.39 6 11.78 6 6 6 C6 6.66 6 7.32 6 8 C11.61 8 17.22 8 23 8 C23 9.98 23 11.96 23 14 C17.39 14 11.78 14 6 14 C6.33 14.66 6.66 15.32 7 16 C9.71446979 16.31241455 12.33909361 16.51336592 15.0625 16.625 C15.82111328 16.66367188 16.57972656 16.70234375 17.36132812 16.7421875 C19.24047195 16.83673562 21.12020336 16.91946756 23 17 C23 18.65 23 20.3 23 22 C19.72946483 22.11608726 16.4594582 22.18720711 13.1875 22.25 C12.25873047 22.28351563 11.32996094 22.31703125 10.37304688 22.3515625 C9.0340332 22.37089844 9.0340332 22.37089844 7.66796875 22.390625 C6.84578857 22.41157227 6.0236084 22.43251953 5.17651367 22.45410156 C3 22 3 22 1.2265625 20.24609375 C-0.11771754 17.78443445 -0.3524776 16.44895486 -0.29296875 13.671875 C-0.28547607 12.9509668 -0.2779834 12.23005859 -0.27026367 11.48730469 C-0.24295166 10.58399414 -0.21563965 9.68068359 -0.1875 8.75 C-0.125625 5.8625 -0.06375 2.975 0 0 Z " fill="#FFFFFF" transform="translate(305,128)"/>
<path d="M0 0 C7.59 0 15.18 0 23 0 C23 1.98 23 3.96 23 6 C17.39 6 11.78 6 6 6 C6 6.66 6 7.32 6 8 C11.61 8 17.22 8 23 8 C23 9.98 23 11.96 23 14 C17.39 14 11.78 14 6 14 C6.33 14.66 6.66 15.32 7 16 C9.71446979 16.31241455 12.33909361 16.51336592 15.0625 16.625 C15.82111328 16.66367188 16.57972656 16.70234375 17.36132812 16.7421875 C19.24047195 16.83673562 21.12020336 16.91946756 23 17 C23 18.65 23 20.3 23 22 C19.72946483 22.11608726 16.4594582 22.18720711 13.1875 22.25 C12.25873047 22.28351563 11.32996094 22.31703125 10.37304688 22.3515625 C9.0340332 22.37089844 9.0340332 22.37089844 7.66796875 22.390625 C6.84578857 22.41157227 6.0236084 22.43251953 5.17651367 22.45410156 C3 22 3 22 1.2265625 20.24609375 C-0.11771754 17.78443445 -0.3524776 16.44895486 -0.29296875 13.671875 C-0.28547607 12.9509668 -0.2779834 12.23005859 -0.27026367 11.48730469 C-0.24295166 10.58399414 -0.21563965 9.68068359 -0.1875 8.75 C-0.125625 5.8625 -0.06375 2.975 0 0 Z " fill="#FFFFFF" transform="translate(47,128)"/>
<path d="M0 0 C8.25 0 16.5 0 25 0 C25 15.7244898 25 15.7244898 20.46875 20.671875 C16.66061999 22.72055253 12.99395376 22.3158179 8.75 22.1875 C5.8625 22.125625 2.975 22.06375 0 22 C0 14.74 0 7.48 0 0 Z M6 6 C6 9.3 6 12.6 6 16 C8.413125 16.0928125 8.413125 16.0928125 10.875 16.1875 C11.77992188 16.22230469 12.68484375 16.25710937 13.6171875 16.29296875 C14.40351562 16.19628906 15.18984375 16.09960938 16 16 C18.4294516 12.3558226 18.16179575 10.28758728 18 6 C14.04 6 10.08 6 6 6 Z " fill="#FFFFFF" transform="translate(548,128)"/>
<path d="M0 0 C0.88816406 0.01804687 1.77632813 0.03609375 2.69140625 0.0546875 C4.87870848 0.10172626 7.06379816 0.16742991 9.25 0.25 C9.25 2.23 9.25 4.21 9.25 6.25 C3.64 6.25 -1.97 6.25 -7.75 6.25 C-7.75 7.24 -7.75 8.23 -7.75 9.25 C-2.14 9.25 3.47 9.25 9.25 9.25 C9.4453125 17.6484375 9.4453125 17.6484375 9.25 20.25 C7.25 22.25 7.25 22.25 5.09521484 22.47705078 C4.22590332 22.46657715 3.3565918 22.45610352 2.4609375 22.4453125 C1.51992188 22.43886719 0.57890625 22.43242187 -0.390625 22.42578125 C-1.37546875 22.40902344 -2.3603125 22.39226562 -3.375 22.375 C-4.36757813 22.36597656 -5.36015625 22.35695312 -6.3828125 22.34765625 C-8.83878134 22.32404116 -11.29427168 22.29110799 -13.75 22.25 C-13.75 20.6 -13.75 18.95 -13.75 17.25 C-8.14 17.25 -2.53 17.25 3.25 17.25 C3.25 16.26 3.25 15.27 3.25 14.25 C-2.36 14.25 -7.97 14.25 -13.75 14.25 C-14.23439182 5.04655544 -14.23439182 5.04655544 -12.34375 1.9375 C-8.36750586 -0.64945402 -4.63054543 -0.17783483 0 0 Z " fill="#FFFFFF" transform="translate(348.75,127.75)"/>
<path d="M0 0 C0.93134766 0.02255859 1.86269531 0.04511719 2.82226562 0.06835938 C5.1123396 0.12707922 7.39907875 0.20913142 9.6875 0.3125 C9.76876109 3.04227064 9.82811663 5.7696017 9.875 8.5 C9.90013672 9.26892578 9.92527344 10.03785156 9.95117188 10.83007812 C9.99538995 14.26434877 9.77506314 17.02484578 8.76953125 20.328125 C5.89276101 23.0699623 3.6970993 22.93826866 -0.18359375 22.94726562 C-1.05113281 22.92341797 -1.91867188 22.89957031 -2.8125 22.875 C-4.11380859 22.89143555 -4.11380859 22.89143555 -5.44140625 22.90820312 C-11.6509561 22.83622225 -11.6509561 22.83622225 -14.375 20.6796875 C-15.58030193 17.63630012 -15.78221736 15.14931002 -15.8125 11.875 C-15.8434375 10.76253906 -15.874375 9.65007812 -15.90625 8.50390625 C-15.3125 5.3125 -15.3125 5.3125 -13.42578125 2.421875 C-8.95633835 -0.60635482 -5.26372289 -0.24179646 0 0 Z M-9.3125 6.3125 C-9.333125 7.941875 -9.35375 9.57125 -9.375 11.25 C-9.38660156 12.16652344 -9.39820313 13.08304688 -9.41015625 14.02734375 C-9.57199049 16.27843327 -9.57199049 16.27843327 -8.3125 17.3125 C-6.48134117 17.41101171 -4.64630067 17.44222629 -2.8125 17.4375 C-1.31203125 17.44136719 -1.31203125 17.44136719 0.21875 17.4453125 C2.63149622 17.59120382 2.63149622 17.59120382 3.6875 16.3125 C3.75955511 14.62641034 3.77136068 12.93749341 3.75 11.25 C3.729375 9.620625 3.70875 7.99125 3.6875 6.3125 C-0.6025 6.3125 -4.8925 6.3125 -9.3125 6.3125 Z " fill="#FFFFFF" transform="translate(245.3125,127.6875)"/>
<path d="M0 0 C0.88365234 0.01804687 1.76730469 0.03609375 2.67773438 0.0546875 C4.84812543 0.10161487 7.01795519 0.17335269 9.1875 0.25 C9.27460289 3.35398978 9.32792309 6.45766548 9.375 9.5625 C9.40013672 10.44357422 9.42527344 11.32464844 9.45117188 12.23242188 C9.46083984 13.07998047 9.47050781 13.92753906 9.48046875 14.80078125 C9.4961792 15.58106689 9.51188965 16.36135254 9.52807617 17.1652832 C9.1875 19.25 9.1875 19.25 7.92700195 21.00097656 C4.71066377 23.31042024 1.01468154 22.7205967 -2.8125 22.6875 C-4.04226562 22.7174707 -4.04226562 22.7174707 -5.296875 22.74804688 C-11.18231812 22.74323851 -11.18231812 22.74323851 -13.84375 20.66015625 C-15.14181291 17.43070135 -15.28302259 14.72833418 -15.3125 11.25 C-15.3434375 10.033125 -15.374375 8.81625 -15.40625 7.5625 C-14.8125 4.25 -14.8125 4.25 -12.89453125 1.828125 C-8.53731665 -0.40294559 -4.81550268 -0.1867309 0 0 Z M-8.8125 6.25 C-8.833125 7.879375 -8.85375 9.50875 -8.875 11.1875 C-8.88660156 12.10402344 -8.89820313 13.02054688 -8.91015625 13.96484375 C-9.07199049 16.21593327 -9.07199049 16.21593327 -7.8125 17.25 C-5.98134117 17.34851171 -4.14630067 17.37972629 -2.3125 17.375 C-0.81203125 17.37886719 -0.81203125 17.37886719 0.71875 17.3828125 C3.13149622 17.52870382 3.13149622 17.52870382 4.1875 16.25 C4.25955511 14.56391034 4.27136068 12.87499341 4.25 11.1875 C4.229375 9.558125 4.20875 7.92875 4.1875 6.25 C-0.1025 6.25 -4.3925 6.25 -8.8125 6.25 Z " fill="#FFFFFF" transform="translate(183.8125,127.75)"/>
<path d="M0 0 C0.93585938 0.01804687 1.87171875 0.03609375 2.8359375 0.0546875 C5.14167015 0.10174327 7.44530945 0.16746287 9.75 0.25 C9.85794277 2.51979665 9.93556176 4.79105196 10 7.0625 C10.04640625 8.32707031 10.0928125 9.59164062 10.140625 10.89453125 C9.75 14.25 9.75 14.25 8.1875 16.1875 C4.8503753 17.6421441 2.1254743 17.53820762 -1.5 17.4375 C-2.76328125 17.41042969 -4.0265625 17.38335937 -5.328125 17.35546875 C-6.29234375 17.32066406 -7.2565625 17.28585938 -8.25 17.25 C-8.25 18.9 -8.25 20.55 -8.25 22.25 C-10.23 22.25 -12.21 22.25 -14.25 22.25 C-14.35806144 19.33234109 -14.43732877 16.41868875 -14.5 13.5 C-14.53351563 12.675 -14.56703125 11.85 -14.6015625 11 C-14.66017773 7.36585553 -14.61265442 4.92585596 -12.875 1.6875 C-8.71019283 -0.59322774 -4.65853096 -0.16963838 0 0 Z M-8.25 6.25 C-8.25 7.9 -8.25 9.55 -8.25 11.25 C-4.29 11.25 -0.33 11.25 3.75 11.25 C4.08 9.6 4.41 7.95 4.75 6.25 C0.46 6.25 -3.83 6.25 -8.25 6.25 Z " fill="#FFFFFF" transform="translate(393.25,127.75)"/>
<path d="M0 0 C0.84046875 0.01804687 1.6809375 0.03609375 2.546875 0.0546875 C4.61507395 0.10169202 6.68268441 0.17343276 8.75 0.25 C8.75 2.23 8.75 4.21 8.75 6.25 C3.47 6.25 -1.81 6.25 -7.25 6.25 C-7.25 9.88 -7.25 13.51 -7.25 17.25 C-3.62 17.25 0.01 17.25 3.75 17.25 C3.75 15.27 3.75 13.29 3.75 11.25 C5.73 11.25 7.71 11.25 9.75 11.25 C9.75 14.88 9.75 18.51 9.75 22.25 C2.16 22.25 -5.43 22.25 -13.25 22.25 C-13.37375 17.91875 -13.37375 17.91875 -13.5 13.5 C-13.53641602 12.59668945 -13.57283203 11.69337891 -13.61035156 10.76269531 C-13.66003534 7.1774501 -13.58988263 4.85587773 -11.8125 1.6875 C-7.92676824 -0.49230074 -4.37080949 -0.17756414 0 0 Z " fill="#FFFFFF" transform="translate(275.25,127.75)"/>
<path d="M0 0 C4.82625 0.12375 4.82625 0.12375 9.75 0.25 C9.75 7.51 9.75 14.77 9.75 22.25 C7.77 22.25 5.79 22.25 3.75 22.25 C3.75 16.97 3.75 11.69 3.75 6.25 C-0.21 6.25 -4.17 6.25 -8.25 6.25 C-8.25 11.53 -8.25 16.81 -8.25 22.25 C-10.23 22.25 -12.21 22.25 -14.25 22.25 C-14.35806144 19.33234109 -14.43732877 16.41868875 -14.5 13.5 C-14.53351563 12.675 -14.56703125 11.85 -14.6015625 11 C-14.66017773 7.36585553 -14.61265442 4.92585596 -12.875 1.6875 C-8.70859776 -0.59410123 -4.65663013 -0.16827605 0 0 Z " fill="#FFFFFF" transform="translate(152.25,127.75)"/>
<path d="M0 0 C1.65 0 3.3 0 5 0 C5 2.64 5 5.28 5 8 C9.29 8 13.58 8 18 8 C18 5.36 18 2.72 18 0 C19.98 0 21.96 0 24 0 C24 7.26 24 14.52 24 22 C22.02 22 20.04 22 18 22 C18 19.36 18 16.72 18 14 C13.71 14 9.42 14 5 14 C5 16.64 5 19.28 5 22 C3.35 22 1.7 22 0 22 C0 14.74 0 7.48 0 0 Z " fill="#FFFFFF" transform="translate(107,128)"/>
<path d="M0 0 C7.59 0 15.18 0 23 0 C23 1.98 23 3.96 23 6 C17.39 6 11.78 6 6 6 C6 9.63 6 13.26 6 17 C11.61 17 17.22 17 23 17 C23 18.65 23 20.3 23 22 C19.72933434 22.08706892 16.45896635 22.14041241 13.1875 22.1875 C12.25873047 22.21263672 11.32996094 22.23777344 10.37304688 22.26367188 C9.0340332 22.27817383 9.0340332 22.27817383 7.66796875 22.29296875 C6.84578857 22.3086792 6.0236084 22.32438965 5.17651367 22.34057617 C3 22 3 22 1.2265625 20.75976562 C-0.32852254 18.52866432 -0.34739394 17.25389886 -0.29296875 14.55078125 C-0.28547607 13.78677002 -0.2779834 13.02275879 -0.27026367 12.2355957 C-0.24295166 11.27097412 -0.21563965 10.30635254 -0.1875 9.3125 C-0.125625 6.239375 -0.06375 3.16625 0 0 Z " fill="#FFFFFF" transform="translate(77,128)"/>
<path d="M0 0 C2.31 0 4.62 0 7 0 C9.31 4.29 11.62 8.58 14 13 C17.59893561 8.50583328 17.59893561 8.50583328 20.25 3.6875 C20.75273437 2.64142578 20.75273437 2.64142578 21.265625 1.57421875 C21.50796875 1.05472656 21.7503125 0.53523437 22 0 C24.31 0 26.62 0 29 0 C27.23465356 4.84015316 24.80463275 9.2835127 22.375 13.8125 C21.95476562 14.60076172 21.53453125 15.38902344 21.1015625 16.20117188 C20.0699991 18.13535326 19.03608828 20.06823983 18 22 C15.69 22 13.38 22 11 22 C9.35045833 18.89779023 7.7060119 15.79290789 6.0625 12.6875 C5.59392578 11.80642578 5.12535156 10.92535156 4.64257812 10.01757812 C3.9706543 8.74624023 3.9706543 8.74624023 3.28515625 7.44921875 C2.87144775 6.66893311 2.45773926 5.88864746 2.03149414 5.0847168 C1 3 1 3 0 0 Z " fill="#FFFFFF" transform="translate(409,128)"/>
<path d="M0 0 C7.92 0 15.84 0 24 0 C24 1.98 24 3.96 24 6 C21.03 6 18.06 6 15 6 C15 11.28 15 16.56 15 22 C13.02 22 11.04 22 9 22 C9 16.72 9 11.44 9 6 C6.03 6 3.06 6 0 6 C0 4.02 0 2.04 0 0 Z " fill="#FFFFFF" transform="translate(444,128)"/>
<path d="M0 0 C7.92 0 15.84 0 24 0 C24 1.98 24 3.96 24 6 C21.03 6 18.06 6 15 6 C15 11.28 15 16.56 15 22 C13.02 22 11.04 22 9 22 C9 16.72 9 11.44 9 6 C6.03 6 3.06 6 0 6 C0 4.02 0 2.04 0 0 Z " fill="#FFFFFF" transform="translate(16,128)"/>
<path d="M0 0 C7.92 0 15.84 0 24 0 C24 1.98 24 3.96 24 6 C21.03 6 18.06 6 15 6 C15 11.28 15 16.56 15 22 C13.35 22 11.7 22 10 22 C10 16.72 10 11.44 10 6 C6.7 6 3.4 6 0 6 C0 4.02 0 2.04 0 0 Z " fill="#FFFFFF" transform="translate(517,128)"/>
<path d="M0 0 C1.98 0 3.96 0 6 0 C6 5.61 6 11.22 6 17 C11.28 17 16.56 17 22 17 C22 18.65 22 20.3 22 22 C18.89601022 22.08710289 15.79233452 22.14042309 12.6875 22.1875 C11.80642578 22.21263672 10.92535156 22.23777344 10.01757812 22.26367188 C8.74624023 22.27817383 8.74624023 22.27817383 7.44921875 22.29296875 C6.66893311 22.3086792 5.88864746 22.32438965 5.0847168 22.34057617 C3 22 3 22 1.24023438 20.75976562 C-0.33227736 18.52853244 -0.34758074 17.26317684 -0.29296875 14.55078125 C-0.28330078 13.70322266 -0.27363281 12.85566406 -0.26367188 11.98242188 C-0.23853516 11.10134766 -0.21339844 10.22027344 -0.1875 9.3125 C-0.17396484 8.41982422 -0.16042969 7.52714844 -0.14648438 6.60742188 C-0.11114079 4.40433834 -0.06180493 2.20247418 0 0 Z " fill="#FFFFFF" transform="translate(488,128)"/>
<path d="M0 0 C1.65 0 3.3 0 5 0 C5.33 5.28 5.66 10.56 6 16 C11.28 16.33 16.56 16.66 22 17 C22 18.65 22 20.3 22 22 C18.89601022 22.08710289 15.79233452 22.14042309 12.6875 22.1875 C11.80642578 22.21263672 10.92535156 22.23777344 10.01757812 22.26367188 C8.74624023 22.27817383 8.74624023 22.27817383 7.44921875 22.29296875 C6.66893311 22.3086792 5.88864746 22.32438965 5.0847168 22.34057617 C3 22 3 22 1.24023438 20.75976562 C-0.33227736 18.52853244 -0.34758074 17.26317684 -0.29296875 14.55078125 C-0.28330078 13.70322266 -0.27363281 12.85566406 -0.26367188 11.98242188 C-0.23853516 11.10134766 -0.21339844 10.22027344 -0.1875 9.3125 C-0.17396484 8.41982422 -0.16042969 7.52714844 -0.14648438 6.60742188 C-0.11114079 4.40433834 -0.06180493 2.20247418 0 0 Z " fill="#FFFFFF" transform="translate(201,128)"/>
<path d="M0 0 C1.98 0 3.96 0 6 0 C6 7.26 6 14.52 6 22 C4.02 22 2.04 22 0 22 C0 14.74 0 7.48 0 0 Z " fill="#FFFFFF" transform="translate(292,128)"/>
<path d="M0 0 C1.65 0 3.3 0 5 0 C5 1.65 5 3.3 5 5 C3.35 5 1.7 5 0 5 C0 3.35 0 1.7 0 0 Z " fill="#FFFFFF" transform="translate(580,145)"/>
</svg>
